<svg version="1.1" viewBox="0.0 0.0 400.0 400.0" fill="none" stroke="none" stroke-linecap="square" stroke-miterlimit="10" xmlns:xlink="http://www.w3.org/1999/xlink" xmlns="http://www.w3.org/2000/svg"><clipPath id="p.0"><path d="m0 0l400.0 0l0 400.0l-400.0 0l0 -400.0z" clip-rule="nonzero"/></clipPath><g clip-path="url(#p.0)"><path fill="#000000" fill-opacity="0.0" d="m0 0l400.0 0l0 400.0l-400.0 0z" fill-rule="evenodd"/><path fill="#000000" fill-opacity="0.0" d="m0 0l398.67715 0l0 151.59055l-398.67715 0z" fill-rule="evenodd"/><path fill="#000000" fill-opacity="0.0" d="m0 102.93044l398.67715 0l0 161.6063l-398.67715 0z" fill-rule="evenodd"/><path fill="#19215a" d="m11.0625 230.93044l0 -93.328125l42.40625 0q15.1875 0 26.78125 5.796875q11.609375 5.796875 18.140625 16.203125q6.53125 10.390625 6.53125 24.65625q0 14.140625 -6.53125 24.609375q-6.53125 10.46875 -18.140625 16.265625q-11.59375 5.796875 -26.78125 5.796875l-42.40625 0zm21.609375 -17.734375l19.71875 0q9.34375 0 16.203125 -3.53125q6.875 -3.53125 10.671875 -10.0625q3.796875 -6.53125 3.796875 -15.34375q0 -8.921875 -3.796875 -15.390625q-3.796875 -6.46875 -10.671875 -10.0q-6.859375 -3.53125 -16.203125 -3.53125l-19.71875 0l0 57.859375zm88.519714 17.734375l0 -93.328125l21.609375 0l0 93.328125l-21.609375 0zm64.13789 0l-30.53125 -93.328125l22.390625 0l26.53125 82.65625l-11.1875 0l27.71875 -82.65625l20.0 0l26.67186 82.65625l-10.796875 0l27.203125 -82.65625l20.65625 0l-30.53125 93.328125l-23.20311 0l-23.59375 -72.53125l6.140625 0l-24.265625 72.53125l-23.203125 0z" fill-rule="nonzero"/><path fill="#19215a" d="m341.18707 230.93044l0 -38.125l4.9375 13.0625l-41.0625 -68.265625l22.921875 0l31.46875 52.390625l-13.203125 0l31.609375 -52.390625l21.1875 0l-41.0625 68.265625l4.796875 -13.0625l0 38.125l-21.59375 0z" fill-rule="nonzero"/><path fill="#000000" fill-opacity="0.0" d="m0 244.37607l398.67715 0l0 52.6929l-398.67715 0z" fill-rule="evenodd"/><path fill="#19215a" d="m14.800201 258.6848l0 26.53125l-5.46875 0l0 -26.53125l5.46875 0zm10.5625 11.328125l0 4.265625l-12.0625 0l0 -4.265625l12.0625 0zm1.28125 -11.328125l0 4.28125l-13.34375 0l0 -4.28125l13.34375 0zm8.986725 0l0 26.53125l-5.453125 0l0 -26.53125l5.453125 0zm26.699005 0l0 26.53125l-5.46875 0l-10.65625 -17.796875l0 17.796875l-5.46875 0l0 -26.53125l5.46875 0l10.671875 17.796875l0 -17.796875l5.453125 0zm15.853104 4.53125l-7.21875 22.0l-5.8125 0l9.859375 -26.53125l3.703125 0l-0.53125 4.53125zm6.0 22.0l-7.234375 -22.0l-0.578125 -4.53125l3.734375 0l9.90625 26.53125l-5.828125 0zm-0.328125 -9.875l0 4.28125l-14.015625 0l0 -4.28125l14.015625 0zm30.220459 -16.65625l0 26.53125l-5.46875 0l-10.65625 -17.796875l0 17.796875l-5.46875 0l0 -26.53125l5.46875 0l10.671875 17.796875l0 -17.796875l5.453125 0zm20.118729 17.734375l5.453125 0q-0.171875 2.671875 -1.46875 4.75q-1.296875 2.078125 -3.625 3.25q-2.328125 1.15625 -5.59375 1.15625q-2.546875 0 -4.578125 -0.875q-2.015625 -0.890625 -3.453125 -2.546875q-1.421875 -1.65625 -2.171875 -4.0q-0.75 -2.359375 -0.75 -5.28125l0 -1.84375q0 -2.90625 0.765625 -5.265625q0.78125 -2.359375 2.234375 -4.015625q1.453125 -1.671875 3.46875 -2.5625q2.03125 -0.890625 4.53125 -0.890625q3.3125 0 5.59375 1.203125q2.296875 1.203125 3.5625 3.328125q1.265625 2.109375 1.515625 4.796875l-5.4375 0q-0.109375 -1.59375 -0.65625 -2.71875q-0.546875 -1.125 -1.65625 -1.6875q-1.109375 -0.578125 -2.921875 -0.578125q-1.375 0 -2.390625 0.515625q-1.015625 0.5 -1.71875 1.546875q-0.6875 1.03125 -1.03125 2.609375q-0.328125 1.578125 -0.328125 3.6875l0 1.875q0 2.0625 0.296875 3.625q0.3125 1.5625 0.953125 2.625q0.65625 1.0625 1.6875 1.609375q1.03125 0.53125 2.484375 0.53125q1.71875 0 2.828125 -0.546875q1.109375 -0.546875 1.703125 -1.625q0.59375 -1.078125 0.703125 -2.671875zm14.861176 -17.734375l0 26.53125l-5.453125 0l0 -26.53125l5.453125 0zm16.21463 4.53125l-7.21875 22.0l-5.8125 0l9.859375 -26.53125l3.703125 0l-0.53125 4.53125zm6.0 22.0l-7.234375 -22.0l-0.578125 -4.53125l3.734375 0l9.90625 26.53125l-5.828125 0zm-0.328125 -9.875l0 4.28125l-14.015625 0l0 -4.28125l14.015625 0zm25.673584 5.609375l0 4.265625l-13.359375 0l0 -4.265625l13.359375 0zm-11.578125 -22.265625l0 26.53125l-5.46875 0l0 -26.53125l5.46875 0zm34.331833 17.078125l-6.765625 0l0 -4.265625l6.765625 0q1.5625 0 2.546875 -0.515625q0.984375 -0.53125 1.4375 -1.453125q0.46875 -0.9375 0.46875 -2.109375q0 -1.171875 -0.46875 -2.1875q-0.453125 -1.03125 -1.4375 -1.640625q-0.984375 -0.625 -2.546875 -0.625l-4.859375 0l0 22.25l-5.46875 0l0 -26.53125l10.328125 0q3.125 0 5.34375 1.125q2.234375 1.109375 3.421875 3.078125q1.1875 1.96875 1.1875 4.5q0 2.578125 -1.1875 4.453125q-1.1875 1.875 -3.421875 2.90625q-2.21875 1.015625 -5.34375 1.015625zm30.777893 5.1875l0 4.265625l-13.359375 0l0 -4.265625l13.359375 0zm-11.578125 -22.265625l0 26.53125l-5.46875 0l0 -26.53125l5.46875 0zm25.853958 4.53125l-7.21875 22.0l-5.8125 0l9.859375 -26.53125l3.703125 0l-0.53125 4.53125zm6.0 22.0l-7.234375 -22.0l-0.578125 -4.53125l3.734375 0l9.90625 26.53125l-5.828125 0zm-0.328125 -9.875l0 4.28125l-14.015625 0l0 -4.28125l14.015625 0zm30.220459 -16.65625l0 26.53125l-5.46875 0l-10.65625 -17.796875l0 17.796875l-5.46875 0l0 -26.53125l5.46875 0l10.671875 17.796875l0 -17.796875l5.453125 0zm26.337494 0l0 26.53125l-5.46875 0l-10.65625 -17.796875l0 17.796875l-5.46875 0l0 -26.53125l5.46875 0l10.671875 17.796875l0 -17.796875l5.453125 0zm10.556213 0l0 26.53125l-5.453125 0l0 -26.53125l5.453125 0zm26.699005 0l0 26.53125l-5.46875 0l-10.65625 -17.796875l0 17.796875l-5.46875 0l0 -26.53125l5.46875 0l10.671875 17.796875l0 -17.796875l5.453125 0zm25.774994 12.65625l0 10.515625q-0.625 0.75 -1.921875 1.625q-1.296875 0.859375 -3.34375 1.484375q-2.03125 0.609375 -4.921875 0.609375q-2.578125 0 -4.6875 -0.84375q-2.109375 -0.84375 -3.640625 -2.484375q-1.515625 -1.640625 -2.34375 -4.015625q-0.8125 -2.390625 -0.8125 -5.453125l0 -1.65625q0 -3.0625 0.78125 -5.4375q0.796875 -2.390625 2.265625 -4.03125q1.484375 -1.640625 3.53125 -2.5q2.046875 -0.859375 4.53125 -0.859375q3.46875 0 5.6875 1.125q2.234375 1.125 3.40625 3.109375q1.171875 1.96875 1.453125 4.515625l-5.3125 0q-0.203125 -1.34375 -0.765625 -2.34375q-0.5625 -1.015625 -1.609375 -1.578125q-1.046875 -0.5625 -2.703125 -0.5625q-1.375 0 -2.4375 0.5625q-1.0625 0.546875 -1.796875 1.625q-0.734375 1.078125 -1.125 2.671875q-0.375 1.578125 -0.375 3.671875l0 1.6875q0 2.078125 0.40625 3.6875q0.40625 1.59375 1.1875 2.671875q0.796875 1.078125 1.96875 1.625q1.171875 0.546875 2.71875 0.546875q1.296875 0 2.15625 -0.21875q0.859375 -0.21875 1.390625 -0.53125q0.546875 -0.3125 0.84375 -0.609375l0 -4.703125l-5.0 0l0 -3.90625l10.46875 0z" fill-rule="nonzero"/></g></svg>