<svg enable-background="new 0 0 277.7 243" viewBox="0 0 277.7 243" xmlns="http://www.w3.org/2000/svg" xmlns:xlink="http://www.w3.org/1999/xlink"><linearGradient id="a" gradientTransform="matrix(1 0 0 -1 0 244)" gradientUnits="userSpaceOnUse" x1="187.9" x2="277.6" y1="111.25" y2="111.25"><stop offset=".00637248" stop-color="#f8b01b"/><stop offset=".1945" stop-color="#f38a29"/><stop offset=".4524" stop-color="#ee5c3a"/><stop offset=".6819" stop-color="#e93b47"/><stop offset=".8721" stop-color="#e7264e"/><stop offset=".9994" stop-color="#e61f51"/></linearGradient><g fill="#fff"><path d="m53.1 159.1v-23.1h26.6v-10.6h-26.6v-31.4h41.1v-10.7h-52.8v75.8z"/><path d="m121.9 159.1v-23.1h22.6c14.3 0 26.5-9.8 26.5-26.2 0-18.2-12.2-26.5-26.5-26.5h-34.4v75.8zm0-65.1h20.5c9.1 0 16.4 5.3 16.4 15.9 0 9.6-7.4 15.5-16.4 15.5h-20.5z"/><path d="m222.3 125.4-17.4-42.1h-5.1l-31.3 75.8h11.3l22.7-53.4 8.2 19.7z"/><path d="m228.9 141.4-10.8 1.5 6.8 16.2h11.4z"/></g><path d="m277.6 127.9-89.7 12.2 6.2-14.7h83.5z" fill="url(#a)"/><path d="m243.4 155.3c0-2.6 1.9-4.3 4.1-4.3 2.3 0 4.1 1.8 4.1 4.3s-1.9 4.3-4.1 4.3-4.1-1.8-4.1-4.3zm7.4 0c0-2.1-1.4-3.5-3.3-3.5-1.8 0-3.3 1.5-3.3 3.5s1.4 3.5 3.3 3.5 3.3-1.5 3.3-3.5zm-4.8-2.3h1.7c.9 0 1.7.4 1.7 1.4 0 .5-.3 1-.8 1.2l1 1.8h-1l-.8-1.5h-.9v1.5h-.9zm1.4 2.2c.6 0 1-.2 1-.7 0-.4-.2-.7-.9-.7h-.6v1.5h.5z" fill="#d1d3d4"/></svg>