<?xml version="1.0" encoding="utf-8"?>
<!-- Generator: Adobe Illustrator 26.1.0, SVG Export Plug-In . SVG Version: 6.00 Build 0)  -->
<svg version="1.1" id="Layer_1" xmlns="http://www.w3.org/2000/svg" xmlns:xlink="http://www.w3.org/1999/xlink" x="0px" y="0px"
	 viewBox="0 0 340 113" style="enable-background:new 0 0 340 113;" xml:space="preserve">
<style type="text/css">
	.st0{fill:#323232;}
	.st1{fill:#9F8C49;}
</style>
<g>
	<g transform="translate(89.041215, 166.479104)">
		<g>
			<path class="st0" d="M-65.8-153.1h10.2l13.8,38.6h-8.6l-2.5-7.2h-15.7l-2.5,7.2h-8.5L-65.8-153.1z M-55.5-129.1l-5-14.6h-0.3
				l-5,14.6H-55.5z"/>
		</g>
	</g>
</g>
<g>
	<g transform="translate(116.96547, 166.479104)">
		<g>
			<path class="st0" d="M-55.4-114c-1.9,0-3.6-0.3-5.1-1c-1.5-0.6-2.9-1.6-4-2.9c-1.1-1.3-2-2.9-2.6-4.8s-0.9-4.1-0.9-6.6
				c0-2.5,0.3-4.6,0.9-6.5c0.6-1.9,1.5-3.5,2.6-4.8c1.1-1.3,2.5-2.3,4-2.9c1.6-0.7,3.3-1,5.1-1c1.1,0,2.1,0.1,2.9,0.4
				c0.9,0.2,1.6,0.5,2.3,0.9c0.7,0.4,1.2,0.8,1.6,1.2c0.4,0.4,0.8,0.8,1.1,1.1h0.3v-12.4h7.7v38.6H-46l-0.8-3.3h-0.3
				c-0.4,0.5-0.9,1-1.4,1.4c-0.5,0.5-1.1,0.9-1.8,1.2c-0.7,0.4-1.4,0.6-2.2,0.9C-53.4-114.1-54.4-114-55.4-114z M-53.7-120.9
				c0.9,0,1.7-0.2,2.5-0.5c0.8-0.3,1.5-0.8,2.1-1.5c0.6-0.7,1.1-1.5,1.4-2.6c0.3-1,0.5-2.3,0.5-3.7c0-1.4-0.2-2.7-0.5-3.7
				c-0.3-1.1-0.8-1.9-1.4-2.6c-0.6-0.7-1.3-1.2-2.1-1.5c-0.8-0.3-1.7-0.5-2.5-0.5c-0.9,0-1.7,0.2-2.5,0.5c-0.8,0.3-1.5,0.8-2.1,1.5
				c-0.6,0.7-1.1,1.6-1.4,2.6c-0.3,1-0.5,2.3-0.5,3.7c0,1.4,0.2,2.7,0.5,3.7c0.4,1,0.8,1.9,1.4,2.6c0.6,0.7,1.3,1.2,2.1,1.5
				C-55.5-121-54.6-120.9-53.7-120.9z"/>
		</g>
	</g>
</g>
<g>
	<g transform="translate(142.614415, 166.479104)">
		<g>
			<path class="st0" d="M-61.5-143.7h8.3l6.6,21.2h0.3l6.6-21.2h8.3l-10.2,29.2h-9.6L-61.5-143.7z"/>
		</g>
	</g>
</g>
<g>
	<g transform="translate(165.160664, 166.479104)">
		<g>
			<path class="st0" d="M-50.6-143.7h7.7v29.2h-7.7V-143.7z M-46.8-146.8c-1.2,0-2.3-0.4-3.1-1.3c-0.8-0.8-1.3-1.9-1.3-3.1
				s0.4-2.3,1.3-3.1c0.8-0.8,1.9-1.3,3.1-1.3s2.3,0.4,3.1,1.3c0.8,0.8,1.3,1.9,1.3,3.1s-0.4,2.3-1.3,3.1
				C-44.5-147.2-45.5-146.8-46.8-146.8z"/>
		</g>
	</g>
</g>
<g>
	<g transform="translate(175.916676, 166.479104)">
		<g>
			<path class="st0" d="M-34.1-114c-2.2,0-4.2-0.3-6-1c-1.8-0.7-3.3-1.7-4.5-3c-1.2-1.3-2.2-2.9-2.9-4.8c-0.7-1.9-1-4-1-6.5
				c0-2.4,0.3-4.6,1-6.4c0.7-1.9,1.6-3.5,2.9-4.8c1.2-1.3,2.8-2.3,4.5-3c1.8-0.7,3.8-1,6-1c2.1,0,3.9,0.3,5.4,0.9
				c1.6,0.6,2.9,1.3,4,2.3c1.1,1,2,2.1,2.6,3.4c0.7,1.3,1.2,2.6,1.5,3.9h-7.7c-0.6-1.1-1.3-2-2.2-2.6c-0.9-0.7-2.1-1-3.6-1
				c-1.9,0-3.5,0.7-4.8,2.1c-1.2,1.4-1.9,3.4-1.9,6.2c0,2.8,0.6,4.8,1.9,6.2c1.2,1.4,2.8,2.1,4.8,2.1c1.5,0,2.7-0.3,3.6-1
				c0.9-0.6,1.6-1.5,2.2-2.6h7.7c-0.3,1.4-0.8,2.7-1.5,4c-0.7,1.2-1.6,2.4-2.6,3.3c-1.1,1-2.4,1.7-4,2.3
				C-30.2-114.3-32-114-34.1-114z"/>
		</g>
	</g>
</g>
<g>
	<g transform="translate(199.497161, 166.479104)">
		<g>
			<path class="st0" d="M-26.2-114c-2.2,0-4.2-0.3-6-1c-1.8-0.7-3.3-1.7-4.5-3c-1.2-1.3-2.2-2.9-2.9-4.8c-0.7-1.9-1-4-1-6.5
				c0-2.4,0.3-4.6,1-6.4c0.7-1.9,1.6-3.5,2.9-4.8c1.2-1.3,2.8-2.3,4.5-3c1.8-0.7,3.8-1,6-1c2.1,0,4.1,0.4,5.8,1.1
				c1.7,0.7,3.2,1.7,4.4,3c1.2,1.3,2.2,2.9,2.8,4.6c0.7,1.8,1,3.7,1,5.9c0,0.4,0,0.8-0.1,1.2c0,0.4-0.1,0.7-0.1,1
				c0,0.3-0.1,0.6-0.1,0.9h-20.1c0.3,1.7,0.9,3.1,1.9,4.1c1,1.1,2.5,1.6,4.4,1.6c1.5,0,2.6-0.2,3.3-0.7c0.7-0.5,1.4-1.2,1.9-2h8.3
				c-0.3,1.2-0.8,2.5-1.5,3.6c-0.7,1.2-1.6,2.2-2.6,3.1c-1.1,0.9-2.4,1.6-4,2.1C-22.4-114.2-24.2-114-26.2-114z M-20.2-132.4
				c-0.1-0.6-0.4-1.2-0.7-1.8c-0.3-0.6-0.7-1.1-1.2-1.6c-0.5-0.5-1.1-0.9-1.8-1.1c-0.7-0.3-1.5-0.4-2.4-0.4c-1.8,0-3.2,0.5-4.2,1.4
				c-1,1-1.7,2.1-2.1,3.5H-20.2z"/>
		</g>
	</g>
</g>
<g>
	<g transform="translate(223.698177, 166.479104)">
		<g>
			<path class="st0" d="M-32.2-133.5h17.9v6.9h-17.9V-133.5z"/>
		</g>
	</g>
</g>
<g>
	<g transform="translate(240.452729, 166.479104)">
		<g>
			<path class="st0" d="M-8.4-114c-2.8,0-5.3-0.4-7.5-1.3c-2.2-0.9-4.1-2.2-5.7-3.9c-1.6-1.7-2.8-3.8-3.7-6.2
				c-0.9-2.5-1.3-5.3-1.3-8.5s0.4-6,1.3-8.4c0.9-2.5,2.1-4.5,3.7-6.2c1.6-1.7,3.5-3,5.7-3.9c2.2-0.9,4.8-1.3,7.5-1.3
				c2.7,0,5.2,0.4,7.5,1.3c2.2,0.9,4.2,2.2,5.8,3.9c1.6,1.7,2.8,3.8,3.7,6.2c0.9,2.5,1.3,5.3,1.3,8.4s-0.4,6-1.3,8.5
				c-0.9,2.5-2.1,4.5-3.7,6.2c-1.6,1.7-3.5,3-5.8,3.9C-3.2-114.4-5.7-114-8.4-114z M-8.4-121.4c1.4,0,2.7-0.3,4-0.8
				c1.2-0.5,2.3-1.3,3.1-2.3c0.9-1,1.6-2.3,2.1-3.9c0.5-1.6,0.8-3.4,0.8-5.4c0-2.1-0.2-3.9-0.8-5.4c-0.5-1.6-1.2-2.9-2.1-3.9
				c-0.9-1-1.9-1.8-3.1-2.3c-1.2-0.5-2.5-0.8-4-0.8c-1.4,0-2.8,0.3-4,0.8c-1.2,0.5-2.3,1.3-3.1,2.3c-0.9,1-1.6,2.3-2.1,3.9
				c-0.5,1.6-0.8,3.4-0.8,5.4c0,2.1,0.2,3.9,0.8,5.4c0.5,1.6,1.2,2.9,2.1,3.9c0.9,1,1.9,1.8,3.1,2.3
				C-11.2-121.7-9.9-121.4-8.4-121.4z"/>
		</g>
	</g>
</g>
<g>
	<g transform="translate(271.065987, 166.479104)">
		<g>
			<path class="st0" d="M-15.3-143.7h6.6l0.8,3.3h0.3c0.9-1.2,2.1-2.2,3.4-2.9c1.3-0.7,2.8-1,4.3-1c1.6,0,3,0.3,4.4,0.8
				c1.3,0.5,2.5,1.3,3.4,2.3c0.9,1,1.7,2.3,2.2,3.7c0.5,1.4,0.8,3.1,0.8,5v17.9H3.1v-16.8c0-1.9-0.5-3.4-1.4-4.5
				c-0.9-1.1-2.2-1.6-3.9-1.6c-1.7,0-3,0.6-4,1.7c-1,1.1-1.5,2.6-1.5,4.4v16.8h-7.7V-143.7z"/>
		</g>
	</g>
</g>
<g>
	<g transform="translate(295.473856, 166.479104)">
		<g>
			<path class="st0" d="M-6.9-153.1h7.7v38.6h-7.7V-153.1z"/>
		</g>
	</g>
</g>
<g>
	<g transform="translate(306.643548, 166.479104)">
		<g>
			<path class="st0" d="M4.9-114.5l-11.9-29.2h8.5l7.2,19h0.2l7-19h8.5l-16,40.3h-8L4.9-114.5z"/>
		</g>
	</g>
</g>
<g>
	<g transform="translate(89.041215, 202.874987)">
		<g>
			<path class="st1" d="M-75.5-141h10.8l14.6,26.5h0.3V-141h8.3v38.6h-10.8l-14.6-26.5h-0.3v26.5h-8.3V-141z"/>
		</g>
	</g>
</g>
<g>
	<g transform="translate(120.273433, 202.874987)">
		<g>
			<path class="st1" d="M-52.6-101.8c-2.2,0-4.2-0.3-6-1c-1.8-0.7-3.3-1.7-4.5-3c-1.3-1.3-2.2-2.9-2.9-4.8c-0.7-1.9-1-4-1-6.5
				c0-2.4,0.3-4.6,1-6.4c0.7-1.9,1.6-3.5,2.9-4.8c1.2-1.3,2.8-2.3,4.5-3c1.8-0.7,3.8-1,6-1c2.1,0,4.1,0.4,5.8,1.1
				c1.7,0.7,3.2,1.7,4.4,3c1.2,1.3,2.2,2.9,2.8,4.6c0.7,1.8,1,3.7,1,5.9c0,0.4,0,0.8-0.1,1.2c0,0.4-0.1,0.7-0.1,1
				c0,0.3-0.1,0.6-0.1,0.9H-59c0.3,1.7,0.9,3.1,1.9,4.1c1,1.1,2.5,1.6,4.4,1.6c1.5,0,2.6-0.2,3.3-0.7c0.7-0.5,1.4-1.2,1.9-2h8.3
				c-0.3,1.2-0.8,2.5-1.5,3.6c-0.7,1.2-1.6,2.2-2.6,3.1c-1.1,0.9-2.4,1.6-4,2.1C-48.8-102.1-50.6-101.8-52.6-101.8z M-46.6-120.3
				c-0.1-0.6-0.4-1.2-0.7-1.8c-0.3-0.6-0.7-1.1-1.2-1.6c-0.5-0.5-1.1-0.9-1.8-1.1c-0.7-0.3-1.5-0.4-2.4-0.4c-1.8,0-3.2,0.5-4.2,1.4
				c-1,1-1.7,2.1-2.1,3.5H-46.6z"/>
		</g>
	</g>
</g>
<g>
	<g transform="translate(144.473223, 202.874987)">
		<g>
			<path class="st1" d="M-45.9-102.4c-3.1,0-5.3-0.7-6.9-2.2c-1.5-1.5-2.2-3.6-2.2-6.3v-13.5h-4.7v-7.2h4.7l1.1-7.7h6.6v7.7h6.9v7.2
				h-6.9v12.1c0,0.8,0.2,1.5,0.7,2c0.5,0.5,1.2,0.8,2,0.8h4.1v7.2H-45.9z"/>
		</g>
	</g>
</g>
<g>
	<g transform="translate(161.433766, 202.874987)">
		<g>
			<path class="st1" d="M-54.9-131.6h8l5,19.6h0.3l5-19.6h8l5,19.6h0.3l5-19.6h7.4l-8,29.2h-8.5l-5-18.5h-0.3l-5,18.5h-9.1
				L-54.9-131.6z"/>
		</g>
	</g>
</g>
<g>
	<g transform="translate(194.734343, 202.874987)">
		<g>
			<path class="st1" d="M-27.8-101.8c-2.2,0-4.2-0.3-6-1c-1.8-0.7-3.3-1.7-4.5-3s-2.2-2.9-2.9-4.8c-0.7-1.9-1-4-1-6.5
				c0-2.4,0.3-4.6,1-6.4c0.7-1.9,1.6-3.5,2.9-4.8c1.2-1.3,2.8-2.3,4.5-3c1.8-0.7,3.8-1,6-1s4.2,0.3,6,1c1.8,0.7,3.3,1.7,4.5,3
				c1.2,1.3,2.2,2.9,2.9,4.8c0.7,1.9,1,4,1,6.4c0,2.4-0.3,4.6-1,6.5c-0.7,1.9-1.6,3.5-2.9,4.8s-2.8,2.3-4.5,3
				C-23.6-102.2-25.6-101.8-27.8-101.8z M-27.8-108.7c0.9,0,1.7-0.2,2.5-0.5c0.8-0.3,1.5-0.8,2.1-1.5c0.6-0.7,1.1-1.5,1.4-2.6
				c0.3-1,0.5-2.3,0.5-3.7c0-1.4-0.2-2.7-0.5-3.7c-0.3-1.1-0.8-1.9-1.4-2.6c-0.6-0.7-1.3-1.2-2.1-1.5c-0.8-0.3-1.7-0.5-2.5-0.5
				c-0.9,0-1.7,0.2-2.5,0.5c-0.8,0.3-1.5,0.8-2.1,1.5c-0.6,0.7-1.1,1.6-1.4,2.6c-0.3,1-0.5,2.3-0.5,3.7c0,1.4,0.2,2.7,0.5,3.7
				c0.4,1,0.8,1.9,1.4,2.6c0.6,0.7,1.3,1.2,2.1,1.5C-29.5-108.9-28.7-108.7-27.8-108.7z"/>
		</g>
	</g>
</g>
<g>
	<g transform="translate(219.140972, 202.874987)">
		<g>
			<path class="st1" d="M-32.6-131.6h6.6l0.8,3.3h0.3c0.8-1.2,1.9-2.1,3-2.6c1.2-0.5,2.5-0.7,3.9-0.7h3.6v7.4h-3
				c-2.3,0-4.2,0.6-5.5,1.9c-1.3,1.3-2,3-2,5.2v14.6h-7.7V-131.6z"/>
		</g>
	</g>
</g>
<g>
	<g transform="translate(235.894675, 202.874987)">
		<g>
			<path class="st1" d="M-26.8-141h7.7v22.4l10.8-13h9.1l-11.9,14.3l12.7,14.9h-9.1l-11.6-13.5v13.5h-7.7V-141z"/>
		</g>
	</g>
</g>
</svg>
