<?xml version="1.0" encoding="UTF-8"?>
<svg width="241px" height="48px" viewBox="0 0 241 48" version="1.1" xmlns="http://www.w3.org/2000/svg" xmlns:xlink="http://www.w3.org/1999/xlink">
    <!-- Generator: Sketch 55.2 (78181) - https://sketchapp.com -->
    <title>logo</title>
    <desc>Created with Sketch.</desc>
    <g id="Symbols" stroke="none" stroke-width="1" fill="none" fill-rule="evenodd">
        <g id="nav-yellow" transform="translate(-50.000000, -35.000000)">
            <g id="logo" transform="translate(50.000000, 35.000000)">
                <rect id="Rectangle" fill="#FFFCFC" x="0" y="0" width="239" height="47"></rect>
                <g id="Group-18" transform="translate(11.000000, 10.000000)" fill="#333333">
                    <path d="M13.0666667,25.8669895 C18.2693333,25.8669895 21.2573333,23.5598316 23.472,20.4247789 L18.5706667,16.8436211 C17.1626667,18.5979368 15.72,19.7720421 13.2706667,19.7720421 C9.98,19.7720421 7.66666667,16.9462526 7.66666667,13.3295158 L7.66666667,13.2624632 C7.66666667,9.74698947 9.98,6.88972632 13.2706667,6.88972632 C15.5186667,6.88972632 17.0626667,7.99130526 18.404,9.71277895 L23.304,5.82098947 C21.2226667,2.85972632 18.136,0.793410526 13.3373333,0.793410526 C6.22133333,0.793410526 0.952,6.30267368 0.952,13.3295158 L0.952,13.3993053 C0.952,20.5972 6.356,25.8669895 13.0666667,25.8669895" id="Fill-2"></path>
                    <polygon id="Fill-4" points="34.7750667 16.7745158 45.8844 16.7745158 45.8844 11.2296737 34.7750667 11.2296737 34.7750667 7.13262105 47.0590667 7.13262105 47.0590667 1.27577895 28.2657333 1.27577895 28.2657333 25.3846211 34.7750667 25.3846211"></polygon>
                    <path d="M58.5322667,6.88945263 L61.5856,6.88945263 C63.9336,6.88945263 65.3429333,7.9924 65.3429333,10.0559789 L65.3429333,10.1271368 C65.3429333,12.0210316 63.9336,13.2621895 61.6189333,13.2621895 L58.5322667,13.2621895 L58.5322667,6.88945263 Z M58.5322667,18.4964 L61.7536,18.4964 C67.5922667,18.4964 71.8562667,15.4995579 71.8562667,9.81650526 L71.8562667,9.74808421 C71.8562667,4.40987368 68.0282667,1.27345263 62.0896,1.27345263 L52.0216,1.27345263 L52.0216,25.3850316 L58.5322667,25.3850316 L58.5322667,18.4964 Z" id="Fill-6"></path>
                    <path d="M94.2653333,20.0138421 L94.2653333,15.5705789 L99.232,15.5705789 C101.412,15.5705789 102.42,16.4299474 102.42,17.7395263 L102.42,17.8079474 C102.42,19.2228947 101.277333,20.0138421 99.2986667,20.0138421 L94.2653333,20.0138421 Z M94.2653333,6.64710526 L98.492,6.64710526 C100.437333,6.64710526 101.445333,7.40657895 101.445333,8.71342105 L101.445333,8.78457895 C101.445333,10.1967895 100.338667,10.8837368 98.3573333,10.8837368 L94.2653333,10.8837368 L94.2653333,6.64710526 Z M108.928,18.7371053 L108.928,18.6700526 C108.928,15.3995263 107.118667,13.7451053 104.265333,12.7803684 C106.346667,11.8498421 107.890667,10.1967895 107.890667,7.40657895 L107.890667,7.33542105 C107.890667,5.68373684 107.317333,4.40973684 106.38,3.44363158 C105.002667,2.03278947 102.924,1.27605263 99.9693333,1.27605263 L87.9213333,1.27605263 L87.9213333,25.3862632 L100.036,25.3862632 C105.638667,25.3862632 108.928,22.8724737 108.928,18.7371053 L108.928,18.7371053 Z" id="Fill-8"></path>
                    <path d="M119.797867,13.2626 C119.797867,9.78133684 122.180533,6.82007368 125.7392,6.82007368 C129.328533,6.82007368 131.777867,9.85112632 131.777867,13.3296526 L131.777867,13.3994421 C131.777867,16.8779684 129.397867,19.8406 125.805867,19.8406 C122.2472,19.8406 119.797867,16.8109158 119.797867,13.3296526 L119.797867,13.2626 Z M125.7392,25.8671263 C132.989867,25.8671263 138.425867,20.2524947 138.425867,13.3296526 L138.425867,13.2626 C138.425867,6.33838947 133.0512,0.793547368 125.805867,0.793547368 C118.556533,0.793547368 113.121867,6.40681053 113.121867,13.3296526 L113.121867,13.3994421 C113.121867,20.3236526 118.4912,25.8671263 125.7392,25.8671263 L125.7392,25.8671263 Z" id="Fill-10"></path>
                    <path d="M153.523067,9.02364211 L156.141733,15.8766947 L150.8724,15.8766947 L153.523067,9.02364211 Z M148.957733,21.0808 L158.0204,21.0808 L159.731067,25.3844842 L166.711067,25.3844842 L156.711067,1.10322105 L150.4364,1.10322105 L140.435067,25.3844842 L147.279067,25.3844842 L148.957733,21.0808 Z" id="Fill-12"></path>
                    <path d="M177.511333,7.06050526 L181.774,7.06050526 C183.955333,7.06050526 185.295333,8.02387368 185.295333,9.92050526 L185.295333,9.98892632 C185.295333,11.7459789 184.023333,12.8475579 181.81,12.8475579 L177.511333,12.8475579 L177.511333,7.06050526 Z M177.511333,18.0845053 L180.295333,18.0845053 L180.364667,18.0845053 L185.096667,25.3850316 L192.614,25.3850316 L187.01,16.9815579 C189.928667,15.7075579 191.843333,13.2608211 191.843333,9.57703158 L191.843333,9.50587368 C191.843333,7.13303158 191.138,5.27061053 189.762,3.89397895 C188.184667,2.23955789 185.699333,1.27482105 182.108667,1.27482105 L171.003333,1.27482105 L171.003333,25.3850316 L177.511333,25.3850316 L177.511333,18.0845053 Z" id="Fill-14"></path>
                    <path d="M203.648133,7.19953684 L206.300133,7.19953684 C210.192133,7.19953684 212.7788,9.43827368 212.7788,13.2958526 L212.7788,13.3629053 C212.7788,17.2574316 210.192133,19.4619579 206.300133,19.4619579 L203.648133,19.4619579 L203.648133,7.19953684 Z M219.4548,13.2630105 L219.4548,13.1904842 C219.4548,6.2348 214.5908,1.27564211 206.201467,1.27564211 L197.140133,1.27564211 L197.140133,25.3844842 L206.064133,25.3844842 C214.5228,25.3844842 219.4548,20.2186947 219.4548,13.2630105 L219.4548,13.2630105 Z" id="Fill-16"></path>
                </g>
                <path d="M0,48 L241,48 L241,0 L0,0 L0,48 Z M5.69973746,42.3626058 L235.300263,42.3626058 L235.300263,5.63739423 L5.69973746,5.63739423 L5.69973746,42.3626058 Z" id="Fill-1" fill="#333333"></path>
            </g>
        </g>
    </g>
</svg>